<svg width="778" height="778" viewBox="0 0 778 778" fill="none" xmlns="http://www.w3.org/2000/svg">
<path d="M778 389C778 174.161 603.839 0 389 0C174.161 0 0 174.161 0 389C0 603.839 174.161 778 389 778C603.839 778 778 603.839 778 389Z" fill="#363636"/>
<path d="M368.842 567.851H114.64V517.418L234.609 389.554C251.081 371.554 263.222 355.848 271.033 342.433C279.013 329.017 283.005 316.282 283.005 304.226C283.005 287.755 278.843 274.849 270.524 265.51C262.203 256 250.317 251.246 234.864 251.246C218.223 251.246 205.063 257.019 195.384 268.566C185.875 279.944 181.119 294.972 181.119 313.649H107.254C107.254 291.065 112.603 270.435 123.301 251.755C134.168 233.076 149.451 218.473 169.148 207.946C188.846 197.248 211.175 191.898 236.138 191.898C274.344 191.898 303.975 201.068 325.031 219.407C346.258 237.747 356.87 263.641 356.87 297.094C356.87 315.434 352.115 334.111 342.606 353.131C333.098 372.149 316.795 394.308 293.703 419.609L209.393 508.504H368.842V567.851ZM655.901 295.566C655.901 313.565 651.401 329.527 642.402 343.45C633.401 357.375 621.005 368.497 605.213 376.818C623.213 385.479 637.476 397.45 648.004 412.733C658.533 427.846 663.797 445.676 663.797 466.222C663.797 499.164 652.589 525.23 630.174 544.417C607.76 563.437 577.279 572.946 538.734 572.946C500.187 572.946 469.622 563.352 447.037 544.163C424.453 524.975 413.162 498.994 413.162 466.222C413.162 445.676 418.426 427.761 428.954 412.478C439.481 397.195 453.661 385.309 471.491 376.818C455.698 368.497 443.302 357.375 434.302 343.45C425.472 329.527 421.058 313.565 421.058 295.566C421.058 263.981 431.586 238.85 452.641 220.172C473.698 201.322 502.31 191.898 538.479 191.898C574.479 191.898 603.005 201.237 624.062 219.917C645.287 238.425 655.901 263.641 655.901 295.566ZM589.93 460.873C589.93 444.741 585.26 431.835 575.922 422.157C566.583 412.478 554.017 407.638 538.224 407.638C522.602 407.638 510.121 412.478 500.782 422.157C491.443 431.666 486.773 444.571 486.773 460.873C486.773 476.664 491.358 489.4 500.527 499.079C509.696 508.759 522.432 513.598 538.734 513.598C554.695 513.598 567.177 508.927 576.176 499.589C585.345 490.25 589.93 477.344 589.93 460.873ZM582.289 299.131C582.289 284.698 578.469 273.152 570.827 264.491C563.186 255.66 552.403 251.246 538.479 251.246C524.724 251.246 514.027 255.492 506.386 263.981C498.745 272.472 494.923 284.188 494.923 299.131C494.923 313.904 498.745 325.792 506.386 334.791C514.027 343.79 524.809 348.291 538.734 348.291C552.658 348.291 563.356 343.79 570.827 334.791C578.469 325.792 582.289 313.904 582.289 299.131Z" fill="white"/>
</svg>
