<svg width="64" height="64" viewBox="0 0 64 64" fill="none" xmlns="http://www.w3.org/2000/svg">
<circle cx="32" cy="32" r="30.6415" stroke="#E7E7E7" stroke-opacity="0.75" stroke-width="2.71698"/>
<path d="M30.2578 47.1196H8.76198V42.8549L18.9068 32.0424C20.2996 30.5203 21.3263 29.1921 21.9868 28.0577C22.6617 26.9233 22.9992 25.8464 22.9992 24.8269C22.9992 23.434 22.6474 22.3427 21.9438 21.553C21.2402 20.7488 20.235 20.3468 18.9283 20.3468C17.5211 20.3468 16.4083 20.835 15.5898 21.8114C14.7857 22.7735 14.3836 24.0443 14.3836 25.6238H8.13736C8.13736 23.714 8.58967 21.9694 9.49431 20.3899C10.4133 18.8103 11.7056 17.5754 13.3713 16.6852C15.037 15.7805 16.9252 15.3282 19.036 15.3282C22.2668 15.3282 24.7725 16.1036 26.5531 17.6544C28.348 19.2052 29.2454 21.395 29.2454 24.2238C29.2454 25.7746 28.8434 27.3541 28.0393 28.9623C27.2351 30.5706 25.8567 32.4444 23.9038 34.584L16.7744 42.101H30.2578V47.1196ZM54.532 24.0945C54.532 25.6166 54.1515 26.9664 53.3905 28.1438C52.6294 29.3213 51.5812 30.2618 50.2458 30.9654C51.7679 31.6978 52.9741 32.7101 53.8643 34.0024C54.7546 35.2804 55.1997 36.7881 55.1997 38.5256C55.1997 41.3113 54.252 43.5154 52.3566 45.138C50.4612 46.7462 47.8837 47.5503 44.6242 47.5503C41.3646 47.5503 38.78 46.739 36.8702 45.1165C34.9604 43.4939 34.0055 41.2969 34.0055 38.5256C34.0055 36.7881 34.4507 35.2732 35.3409 33.9809C36.2312 32.6885 37.4302 31.6834 38.9379 30.9654C37.6025 30.2618 36.5543 29.3213 35.7932 28.1438C35.0466 26.9664 34.6732 25.6166 34.6732 24.0945C34.6732 21.4237 35.5635 19.2986 37.344 17.719C39.1246 16.1252 41.5441 15.3282 44.6026 15.3282C47.6468 15.3282 50.0591 16.118 51.8397 17.6975C53.6346 19.2627 54.532 21.395 54.532 24.0945ZM48.9535 38.0733C48.9535 36.7091 48.5586 35.6178 47.7688 34.7993C46.9791 33.9809 45.9165 33.5716 44.5811 33.5716C43.26 33.5716 42.2046 33.9809 41.4149 34.7993C40.6251 35.6035 40.2302 36.6948 40.2302 38.0733C40.2302 39.4087 40.6179 40.4856 41.3933 41.3041C42.1687 42.1226 43.2457 42.5318 44.6242 42.5318C45.9739 42.5318 47.0293 42.1369 47.7904 41.3472C48.5658 40.5574 48.9535 39.4661 48.9535 38.0733ZM48.3073 24.3961C48.3073 23.1755 47.9842 22.1991 47.3381 21.4668C46.6919 20.7201 45.7801 20.3468 44.6026 20.3468C43.4395 20.3468 42.5349 20.7058 41.8887 21.4237C41.2426 22.1417 40.9195 23.1325 40.9195 24.3961C40.9195 25.6453 41.2426 26.6505 41.8887 27.4115C42.5349 28.1726 43.4467 28.5531 44.6242 28.5531C45.8016 28.5531 46.7063 28.1726 47.3381 27.4115C47.9842 26.6505 48.3073 25.6453 48.3073 24.3961Z" fill="#E7E7E7" fill-opacity="0.75"/>
</svg>
