<svg width="50" height="50" viewBox="0 0 50 50" fill="none" xmlns="http://www.w3.org/2000/svg">
<circle cx="25" cy="25" r="23.9387" stroke="#E7E7E7" stroke-opacity="0.75" stroke-width="2.12264"/>
<path d="M23.6389 36.7809H6.84534V33.4491L14.771 25.0018C15.8591 23.8127 16.6612 22.775 17.1773 21.8888C17.7045 21.0026 17.9681 20.1612 17.9681 19.3647C17.9681 18.2765 17.6933 17.424 17.1436 16.807C16.5939 16.1788 15.8086 15.8646 14.7878 15.8646C13.6884 15.8646 12.819 16.2461 12.1796 17.0089C11.5514 17.7605 11.2372 18.7533 11.2372 19.9873H6.35735C6.35735 18.4953 6.71072 17.1323 7.41746 15.8983C8.13543 14.6643 9.14506 13.6995 10.4464 13.004C11.7477 12.2973 13.2229 11.9439 14.8719 11.9439C17.396 11.9439 19.3536 12.5497 20.7446 13.7612C22.1469 14.9728 22.848 16.6836 22.848 18.8935C22.848 20.1051 22.5339 21.3391 21.9057 22.5955C21.2775 23.852 20.2005 25.3159 18.6749 26.9874L13.1051 32.8601H23.6389V36.7809ZM42.6032 18.7926C42.6032 19.9817 42.3059 21.0362 41.7114 21.9561C41.1168 22.876 40.2979 23.6108 39.2546 24.1605C40.4437 24.7326 41.386 25.5235 42.0816 26.5331C42.7771 27.5315 43.1248 28.7094 43.1248 30.0668C43.1248 32.2431 42.3844 33.9651 40.9036 35.2328C39.4228 36.4892 37.4092 37.1174 34.8627 37.1174C32.3162 37.1174 30.2969 36.4836 28.8049 35.216C27.3129 33.9483 26.5668 32.2319 26.5668 30.0668C26.5668 28.7094 26.9146 27.5259 27.6101 26.5163C28.3057 25.5066 29.2424 24.7214 30.4203 24.1605C29.377 23.6108 28.5581 22.876 27.9635 21.9561C27.3802 21.0362 27.0885 19.9817 27.0885 18.7926C27.0885 16.706 27.784 15.0457 29.1751 13.8117C30.5661 12.5665 32.4564 11.9439 34.8458 11.9439C37.2241 11.9439 39.1087 12.5609 40.4998 13.7949C41.9021 15.0177 42.6032 16.6836 42.6032 18.7926ZM38.2449 29.7134C38.2449 28.6477 37.9364 27.7951 37.3194 27.1557C36.7024 26.5163 35.8723 26.1966 34.829 26.1966C33.7969 26.1966 32.9724 26.5163 32.3554 27.1557C31.7384 27.7839 31.4299 28.6365 31.4299 29.7134C31.4299 30.7567 31.7328 31.5981 32.3386 32.2375C32.9444 32.877 33.7857 33.1967 34.8627 33.1967C35.9172 33.1967 36.7417 32.8882 37.3363 32.2712C37.9421 31.6542 38.2449 30.8016 38.2449 29.7134ZM37.7401 19.0282C37.7401 18.0746 37.4877 17.3118 36.9829 16.7397C36.4781 16.1563 35.7657 15.8646 34.8458 15.8646C33.9372 15.8646 33.2304 16.1451 32.7256 16.706C32.2208 17.2669 31.9684 18.041 31.9684 19.0282C31.9684 20.0041 32.2208 20.7894 32.7256 21.384C33.2304 21.9785 33.9428 22.2758 34.8627 22.2758C35.7826 22.2758 36.4893 21.9785 36.9829 21.384C37.4877 20.7894 37.7401 20.0041 37.7401 19.0282Z" fill="#E7E7E7" fill-opacity="0.75"/>
</svg>
