<svg width="1190" height="530" viewBox="0 0 1190 530" fill="none" xmlns="http://www.w3.org/2000/svg">
<path d="M239.797 73.7999C244.291 68.0219 253.921 66.0959 276.391 66.0959H347.01C377.313 66.0959 389.596 88.7797 391.95 100.122L518.423 488.53H633.983C674.001 363.127 755.063 109.88 759.172 100.122C770.985 72.3874 796.194 65.4539 807.322 65.4539H908.115C976.167 65.4539 984.513 251.633 908.115 251.633H849.694V276.671C864.246 274.745 895.275 276.671 908.115 276.671C927.118 276.671 936.149 313.051 938.289 331.24C939.145 343.866 941.628 374.511 944.709 396.082C950.029 433.318 964.641 452.299 985.155 467.986C1017.38 492.629 1108.07 489.908 1151.93 488.592L1154 488.53V467.986C1121.9 461.566 1113.46 442.306 1097.5 356.92C1086.59 298.499 1021.11 266.399 976.167 261.905V256.769C1052.56 256.769 1113.55 225.334 1113.55 145.703C1113.55 121.95 1105.85 38.49 1003.77 41.058H735.418L636.551 388.378L534.473 41.058H35V65.4539C57.4699 65.4539 67.0998 67.3799 71.5938 73.1579C75.189 77.7802 74.5898 85.5698 74.8038 87.9237V446.158C74.5898 448.512 75.189 456.302 71.5938 460.924C67.0998 466.702 59.3959 468.628 36.926 468.628V488.53H276.391V468.628C253.921 468.628 244.291 466.702 239.797 460.924C236.202 456.302 236.801 448.512 236.587 446.158V88.5657C236.801 86.2117 236.202 78.4222 239.797 73.7999Z" fill="black"/>
</svg>
